<?xml version="1.0" encoding="UTF-8"?>
<svg width="60px" height="60px" viewBox="0 0 60 60" version="1.1" xmlns="http://www.w3.org/2000/svg" xmlns:xlink="http://www.w3.org/1999/xlink">
    <g id="arrow-fill" transform="translate(-690.000000, -894.000000)" fill="#1C395D" fill-rule="nonzero">
            <g id="#1">
                <g id="arrow" transform="translate(690.000000, 894.000000)">
                    <path d="M30,0 C46.5685425,0 60,13.4314575 60,30 C60,46.5685425 46.5685425,60 30,60 C13.4314575,60 0,46.5685425 0,30 C0,13.4314575 13.4314575,0 30,0 Z M30,4 C15.6405965,4 4,15.6405965 4,30 C4,44.3594035 15.6405965,56 30,56 C44.3594035,56 56,44.3594035 56,30 C56,15.6405965 44.3594035,4 30,4 Z" id="circle" fill-opacity="0.1"></path>
                    <path d="M16.5812914,24.5857864 C17.3212321,23.8458457 18.4967163,23.8069014 19.2825037,24.4689537 L19.4097185,24.5857864 L30,35.176 L40.5902815,24.5857864 C41.3302223,23.8458457 42.5057064,23.8069014 43.2914939,24.4689537 L43.4187086,24.5857864 C44.1586494,25.3257272 44.1975936,26.5012114 43.5355414,27.2869988 L43.4187086,27.4142136 L31.4142136,39.4187086 C30.6742728,40.1586494 29.4987886,40.1975936 28.7130012,39.5355414 L28.5857864,39.4187086 L16.5812914,27.4142136 C15.8002428,26.633165 15.8002428,25.366835 16.5812914,24.5857864 Z"></path>
                </g>
            </g>
        </g>
</svg>