<?xml version="1.0" encoding="UTF-8"?>
<svg width="200px" height="46px" viewBox="0 0 200 46" version="1.1" fill="#13395B" 
    xmlns="http://www.w3.org/2000/svg" 
    xmlns:xlink="http://www.w3.org/1999/xlink">
    <g id="logo-fill" transform="translate(-620.000000, -142.000000)">
        <g id="#1">
            <path d="M796.432001,142 C809.626353,142 819.962418,151.950453 819.962418,164.654747 C819.962418,169.879323 818.209075,174.634921 815.23269,178.427229 L814.940852,178.791202 L820,183.817577 L815.790307,188 L810.610691,182.853937 C806.692902,185.662508 801.799012,187.309494 796.432001,187.309494 C783.236619,187.309494 772.900554,177.35853 772.900554,164.654747 C772.900554,151.950453 783.236619,142 796.432001,142 Z M626.474391,142.937145 L626.474391,180.372309 L652.878026,180.372309 L652.878026,186.368461 L620,186.368461 L620,142.937145 L626.474391,142.937145 Z M744.355778,142.937196 C753.600937,142.937196 759.81277,148.788598 759.81277,157.499208 C759.81277,163.36084 755.887258,168.357037 749.811339,170.225497 L748.525315,170.621898 L759.635156,186.368512 L751.429936,186.368512 L741.901111,172.061732 L730.063313,172.061732 L730.063313,186.368512 L723.588921,186.368512 L723.588921,142.937196 L744.355778,142.937196 Z M686.673617,142.937145 C688.695796,142.937145 690.528928,144.094437 691.393343,145.895653 L691.488739,146.106314 L708.653907,186.368461 L701.43354,186.368461 L687.956036,153.182725 L674.35755,186.368461 L667.194328,186.368461 L683.850337,148.501092 L677.328068,148.501092 C674.931605,148.501092 672.975993,146.628175 672.86303,144.275528 L672.857875,144.060369 L672.857875,142.937145 L686.673617,142.937145 Z M796.432001,147.995641 C787.42263,147.995641 779.811514,155.624458 779.811514,164.654747 C779.811514,173.684524 787.42263,181.313341 796.432001,181.313341 C799.789879,181.313341 802.950594,180.250296 805.597874,178.452835 L805.940233,178.214246 L800.830118,173.137234 L805.039811,168.954811 L810.103077,173.984767 C811.877237,171.414293 812.958725,168.347762 813.045769,165.081843 L813.051458,164.654747 C813.052488,155.624458 805.441371,147.995641 796.432001,147.995641 Z M743.701441,148.934883 L730.063313,148.934883 L730.063313,166.064045 L743.701441,166.064045 C750.814725,166.064045 753.338378,161.450951 753.338378,157.499208 C753.338378,153.547977 750.814725,148.934883 743.701441,148.934883 Z" id="logo"></path>
        </g>
    </g>
</svg>